<?xml version="1.0" encoding="UTF-8"?>
<svg version="1.1" xmlns="http://www.w3.org/2000/svg" width="1024" height="1024">
<path d="M0 0 C337.92 0 675.84 0 1024 0 C1024 337.92 1024 675.84 1024 1024 C686.08 1024 348.16 1024 0 1024 C0 686.08 0 348.16 0 0 Z " fill="#F8F8F8" transform="translate(0,0)"/>
<path d="M0 0 C1.08704173 0.00436926 1.08704173 0.00436926 2.19604391 0.00882679 C3.34276198 0.00754515 3.34276198 0.00754515 4.51264608 0.00623763 C7.09381641 0.00458052 9.67492283 0.01010794 12.25608724 0.01555592 C14.09857583 0.01583777 15.94106454 0.0156801 17.78355306 0.01511341 C22.80193859 0.01482534 27.82030044 0.02072356 32.83868045 0.02768737 C38.07709361 0.03391938 43.31550725 0.03452459 48.55392355 0.03571278 C58.48099114 0.03882655 68.40804778 0.04704055 78.33511055 0.05706227 C89.63358718 0.068222 100.93206433 0.0737335 112.2305451 0.0787577 C135.47921823 0.08922312 158.72788162 0.10682344 181.97654623 0.12908131 C181.18250519 1.57756657 180.3861271 3.02477087 179.58875936 4.4714275 C179.14552643 5.27747551 178.70229349 6.08352352 178.24562925 6.91399723 C176.86319932 9.32691937 175.33162412 11.46914074 173.56248373 13.61345631 C170.00251442 18.05330987 166.78307995 22.66324614 163.60154623 27.37908131 C162.45860275 29.06156709 161.31537305 30.74385846 160.17185873 32.42595631 C159.62304037 33.23484303 159.07422201 34.04372975 158.50877279 34.87712818 C156.51542822 37.8067984 154.49858526 40.71913584 152.47654623 43.62908131 C149.40737208 48.05048757 146.36362764 52.4882483 143.33128256 56.93498951 C135.83467061 67.92467793 128.22615492 78.83119061 120.46092123 89.63298756 C119.6534883 90.75658398 118.84619553 91.88028113 118.03904623 93.00408131 C117.64104818 93.55821705 117.24305013 94.11235279 116.83299154 94.68328053 C112.74784404 100.39957137 108.81478081 106.21805734 104.86570638 112.02873951 C101.47734783 116.99385405 97.99918222 121.86662883 94.41404623 126.69158131 C88.34684056 134.99040285 82.67894582 143.57548192 76.97654623 152.12908131 C109.64654623 152.12908131 142.31654623 152.12908131 175.97654623 152.12908131 C174.24477035 155.59263307 172.67346474 157.88671836 170.22654623 160.81658131 C169.42732748 161.779511 168.62810873 162.74244068 167.80467123 163.73455006 C167.35801107 164.26999439 166.91135092 164.80543873 166.4511556 165.35710865 C163.61175582 168.76908938 160.79677289 172.20125253 157.97654623 175.62908131 C156.75915123 177.10698948 155.54170427 178.58485486 154.32420248 180.06267506 C149.16886711 186.32303347 144.02613535 192.59335617 138.92576498 198.89861256 C133.79487303 205.23731143 128.65010749 211.55444964 123.35154623 217.75408131 C119.63203666 222.10704154 116.04951393 226.54353898 112.53904623 231.06658131 C108.26629859 236.57095324 103.81320561 241.88582155 99.25291342 247.15349537 C95.69559084 251.26846485 92.25749202 255.4599603 88.88279623 259.72673756 C86.87560548 262.25629147 84.83689292 264.75734068 82.78904623 267.25408131 C79.00485315 271.86831328 75.23761467 276.4959833 71.47654623 281.12908131 C67.1132054 286.5032951 62.73864902 291.86798526 58.35154623 297.22283131 C55.38566396 300.85213462 52.43098941 304.49046466 49.47654623 308.12908131 C47.81295611 310.1768895 46.14921026 312.22457097 44.48533529 314.27214772 C43.16694834 315.89474499 41.84904978 317.51773908 40.53123373 319.14080006 C37.06188988 323.39976159 33.56170972 327.62678322 29.9968099 331.80583912 C25.72881945 336.80943247 21.57102573 341.87049993 17.53904623 347.06658131 C13.8106132 351.87065195 9.96284447 356.53685547 5.97654623 361.12908131 C2.06031111 365.64332509 -1.73198665 370.2220801 -5.39845377 374.94158131 C-14.04068729 386.06404766 -23.06944232 396.87529307 -32.19581705 407.60246998 C-34.97230467 410.87004052 -37.699033 414.17267273 -40.39845377 417.50408131 C-47.58104516 426.3214202 -55.06473819 434.8989776 -62.71095377 443.31658131 C-67.66065376 448.77229152 -72.34331102 454.44256131 -77.02345377 460.12908131 C-78.02345377 458.12908131 -78.02345377 458.12908131 -77.46354777 456.13233143 C-76.98200739 454.90059445 -76.98200739 454.90059445 -76.49073893 453.64397389 C-76.13120127 452.708895 -75.77166361 451.77381611 -75.40123087 450.8104015 C-75.00070505 449.78763615 -74.60017924 448.7648708 -74.18751627 447.71111256 C-73.34308373 445.5083835 -72.50104768 443.30473455 -71.66114908 441.10027272 C-71.22290812 439.95028797 -70.78466715 438.80030323 -70.33314615 437.61547047 C-68.24152018 432.04758122 -66.26328969 426.441425 -64.29689127 420.82830006 C-63.90145624 419.70032002 -63.50602122 418.57233998 -63.09860331 417.41017872 C-61.8631289 413.8797068 -60.63072634 410.34817192 -59.39845377 406.81658131 C-58.52033773 404.30641267 -57.64201421 401.7963175 -56.76344401 399.28630787 C-54.17947264 391.90195252 -51.60095016 384.51569918 -49.02345377 377.12908131 C-48.29998849 375.05632574 -47.5765187 372.98357174 -46.85304362 370.91081959 C-44.31441365 363.63658499 -41.77649877 356.36210285 -39.24220377 349.0863567 C-36.49027036 341.18734346 -33.73299099 333.29038081 -30.94923502 325.40251881 C-29.93219302 322.51974683 -28.91522201 319.63694986 -27.89845377 316.75408131 C-27.6501179 316.05008198 -27.40178202 315.34608265 -27.14592081 314.62075001 C-23.24091095 303.54015743 -19.39966678 292.43790753 -15.57814127 281.32830006 C-15.33980948 280.6355045 -15.10147768 279.94270893 -14.85592371 279.22891957 C-12.44034127 272.20626929 -10.02713937 265.18280715 -7.61844927 258.15778977 C-6.71363132 255.51951153 -5.80778957 252.88158547 -4.901784 250.24371487 C-4.26900502 248.39992784 -3.63777726 246.55560868 -3.00657755 244.71128041 C-2.62768381 243.60819035 -2.24879008 242.50510029 -1.85841471 241.36858326 C-1.52678324 240.40096562 -1.19515177 239.43334797 -0.85347086 238.43640858 C-0.02345377 236.12908131 -0.02345377 236.12908131 0.97654623 234.12908131 C-31.36345377 234.12908131 -63.70345377 234.12908131 -97.02345377 234.12908131 C-93.652965 222.89411874 -93.652965 222.89411874 -91.80861002 218.38298756 C-91.38039957 217.32571461 -90.95218912 216.26844166 -90.5110026 215.17913014 C-90.04073649 214.02823902 -89.57047037 212.87734791 -89.08595377 211.69158131 C-88.00444549 209.02106734 -86.92762997 206.34867323 -85.85157877 203.67595631 C-85.40936739 202.57849835 -85.40936739 202.57849835 -84.95822245 201.45886952 C-80.67862468 190.8150038 -76.5162481 180.12472085 -72.33595377 169.44158131 C-66.05147279 153.38872681 -59.74676708 137.34430114 -53.39845377 121.31658131 C-47.48822413 106.3927771 -41.61724162 91.45402718 -35.77345377 76.50408131 C-28.55336746 58.03387383 -21.31543313 39.57103627 -14.02345377 21.12908131 C-13.59258463 20.03756764 -13.16171549 18.94605397 -12.71778971 17.82146412 C-11.57265423 14.92281161 -10.42392984 12.02561751 -9.27345377 9.12908131 C-8.94973795 8.30907643 -8.62602213 7.48907154 -8.29249674 6.64421803 C-5.64962894 0.01721599 -5.64962894 0.01721599 0 0 Z " fill="#23B9D1" transform="translate(505.023453772068,296.8709186911583)"/>
<path d="M0 0 C2.42130331 2.42130331 2.52840504 3.80111377 3.125 7.125 C3.29257812 8.03507812 3.46015625 8.94515625 3.6328125 9.8828125 C3.75398437 10.58148438 3.87515625 11.28015625 4 12 C4.76852295 11.97381592 5.5370459 11.94763184 6.32885742 11.9206543 C41.64864392 10.88114043 71.11482282 19.29535163 97.78125 43.52734375 C119.48703921 64.28807753 132.22952928 93.67608963 133.21875 123.64453125 C133.87201322 154.58121102 124.35693139 181.49745325 103.59375 204.6875 C93.15054822 215.53757977 77.18480473 229.41092938 61.84912109 232.42236328 C59.57943841 232.89289054 59.57943841 232.89289054 58.32421875 236.17578125 C57.76665821 237.54988405 57.22183822 238.92920144 56.6875 240.3125 C51.48479957 252.89652292 44.51229069 263.45429555 36 274 C35.37222656 274.78375 34.74445313 275.5675 34.09765625 276.375 C32.78727727 277.96411485 31.40287227 279.49191231 30 281 C29.34 281 28.68 281 28 281 C28 281.66 28 282.32 28 283 C16.29636216 294.09382905 2.55559518 302.30377399 -12 309 C-13.71896484 309.81984375 -13.71896484 309.81984375 -15.47265625 310.65625 C-41.37957213 322.10552962 -71.6003806 323.04537489 -99 317 C-99.65709961 316.86078125 -100.31419922 316.7215625 -100.99121094 316.578125 C-113.36252506 313.88572817 -125.60130915 309.30632207 -136 302 C-134.34167213 298.05432335 -131.6527597 295.06592977 -128.875 291.875 C-127.8674549 290.70140833 -126.86095016 289.52692273 -125.85546875 288.3515625 C-125.11756104 287.48966309 -125.11756104 287.48966309 -124.36474609 286.61035156 C-122.59610307 284.52341608 -120.8859909 282.39429871 -119.1875 280.25 C-111.41486429 270.4545677 -103.43131511 260.82252249 -95.3125 251.3125 C-91.11132046 246.38827334 -87.0958091 241.34023279 -83.12426758 236.22973633 C-79.57413844 231.68060123 -75.8780752 227.27667303 -72.125 222.89453125 C-68.81208562 219.00750386 -65.63355562 215.03259494 -62.5 211 C-58.42895569 205.76175352 -54.2265902 200.66219038 -49.91845703 195.61767578 C-46.51458837 191.62714394 -43.21626538 187.56592315 -39.95703125 183.45703125 C-37.09870759 179.86843727 -34.18734974 176.32406899 -31.27734375 172.77734375 C-29.78699798 170.95978656 -28.29988506 169.13957252 -26.81640625 167.31640625 C-22.80665772 162.39177749 -18.74703202 157.51794957 -14.625 152.6875 C-10.82411557 148.22916529 -7.15398757 143.69091185 -3.5625 139.0625 C0.64020224 133.64733544 5.02404627 128.42804583 9.51708984 123.25244141 C13.46731784 118.67896373 17.21176024 113.97135709 20.91259766 109.19506836 C24.54711652 104.52333699 28.32974143 99.99525265 32.20922852 95.52514648 C35.41625955 91.80059645 38.11070105 88.04501853 41 84 C8.33 84 -24.34 84 -58 84 C-56.58947464 80.4736866 -55.69818305 78.30363596 -53.6015625 75.390625 C-52.89193359 74.39579102 -52.89193359 74.39579102 -52.16796875 73.38085938 C-51.65878906 72.67767578 -51.14960937 71.97449219 -50.625 71.25 C-49.53371841 69.72405541 -48.44257644 68.19801097 -47.3515625 66.671875 C-46.7937207 65.89521484 -46.23587891 65.11855469 -45.66113281 64.31835938 C-43.08740334 60.72633482 -40.54431616 57.11288692 -38 53.5 C-35.01662218 49.26994615 -32.03080927 45.04168442 -29.03515625 40.8203125 C-23.13910825 32.50286369 -17.32071927 24.14000684 -11.62719727 15.68212891 C-7.96421587 10.27904035 -4.06213094 5.10918086 0 0 Z " fill="#F8F9F8" transform="translate(640,365)"/>
<path d="M0 0 C0.86865189 -0.00029205 1.73730377 -0.00058411 2.63227844 -0.00088501 C5.50007151 0.00050701 8.36760395 0.01606225 11.23535156 0.03173828 C13.22503518 0.03546886 15.21472063 0.03831562 17.20440674 0.04031372 C22.43887411 0.0479466 27.67323033 0.06759218 32.90765381 0.08972168 C38.24994402 0.11018751 43.5922522 0.11931702 48.93457031 0.12939453 C59.41508787 0.15083835 69.89552297 0.18497019 80.37597656 0.22705078 C79.7588527 3.5046282 79.07769215 6.18197167 77.51269531 9.13330078 C76.93430908 10.23134033 76.93430908 10.23134033 76.34423828 11.3515625 C75.92158691 12.13547363 75.49893555 12.91938477 75.06347656 13.72705078 C74.61762207 14.56381348 74.17176758 15.40057617 73.71240234 16.26269531 C70.01924459 23.14406193 66.1583086 29.9244826 62.25927734 36.69067383 C57.90358124 44.26207192 53.654413 51.88981034 49.43847656 59.53955078 C49.09809357 60.15701172 48.75771057 60.77447266 48.40701294 61.41064453 C43.25353211 70.76524135 38.16457169 80.15368106 33.09667969 89.55493164 C28.94295367 97.23662921 24.6531882 104.8354263 20.33154297 112.42358398 C15.50549087 120.92846415 10.87716691 129.53427873 6.26171875 138.15478516 C2.73448134 144.73341007 -0.86997524 151.24654901 -4.60839844 157.70751953 C-7.31823579 162.4102986 -9.93812433 167.16319457 -12.56152344 171.91455078 C-13.28988403 173.22721924 -13.28988403 173.22721924 -14.03295898 174.56640625 C-14.48453369 175.38641113 -14.9361084 176.20641602 -15.40136719 177.05126953 C-16.00839478 178.15088013 -16.00839478 178.15088013 -16.62768555 179.27270508 C-17.74778597 181.34975055 -17.74778597 181.34975055 -18.62402344 184.22705078 C10.41597656 184.22705078 39.45597656 184.22705078 69.37597656 184.22705078 C67.92147776 188.59054719 66.67924284 191.76212261 64.46972656 195.64892578 C63.89601318 196.6647876 63.3222998 197.68064941 62.73120117 198.72729492 C62.11897705 199.79971436 61.50675293 200.87213379 60.87597656 201.97705078 C59.59582418 204.24125811 58.3158772 206.50558158 57.03613281 208.77001953 C56.40852051 209.87651855 55.7809082 210.98301758 55.13427734 212.12304688 C52.84263046 216.16858957 50.57151734 220.22517198 48.31347656 224.28955078 C47.92627441 224.98636963 47.53907227 225.68318848 47.14013672 226.40112305 C40.0085798 239.27310358 33.01657205 252.22459753 26.12597656 265.22705078 C23.20125505 270.74254213 20.16124992 276.18564418 17.08203125 281.61572266 C13.60116755 287.77711623 10.2359465 293.99908572 6.87597656 300.22705078 C3.28436415 306.88388312 -0.3223877 313.52684579 -4.06152344 320.10205078 C-7.94661871 326.93717529 -11.66290037 333.85869043 -15.37402344 340.78955078 C-20.60133601 350.55052436 -25.95497816 360.22924638 -31.44921875 369.8425293 C-33.96649437 374.25338413 -36.37368681 378.67231538 -38.62402344 383.22705078 C-39.48063121 384.6962629 -40.35565439 386.15489742 -41.24902344 387.60205078 C-43.99993883 392.12974195 -46.60559565 396.72644339 -49.18652344 401.35205078 C-51.83475249 406.09297854 -54.4922293 410.80234025 -57.45605469 415.35595703 C-59.26912895 418.26051412 -60.9349692 421.24939974 -62.62402344 424.22705078 C-63.29025522 425.39396584 -63.9569152 426.56063655 -64.62402344 427.72705078 C-65.11902344 428.59330078 -65.11902344 428.59330078 -65.62402344 429.47705078 C-68.62402344 434.72705078 -68.62402344 434.72705078 -69.61914062 436.45922852 C-70.31268626 437.67933637 -70.99497613 438.90588726 -71.66796875 440.13745117 C-73.85879878 444.1089771 -75.8773772 446.62521311 -79.62402344 449.22705078 C-77.70294961 442.65406995 -75.62434081 436.16142354 -73.35839844 429.69970703 C-73.04838394 428.80995682 -72.73836945 427.9202066 -72.41896057 427.00349426 C-71.40607897 424.09810972 -70.3901252 421.19381054 -69.37402344 418.28955078 C-68.65794519 416.23834288 -67.94204643 414.18707231 -67.22631836 412.13574219 C-65.75161051 407.90982045 -64.27575446 403.68430189 -62.79931641 399.45898438 C-60.7561993 393.60929497 -58.72217802 387.75647791 -56.69042969 381.90283203 C-50.83193985 365.03553369 -44.91748468 348.19399238 -38.81152344 331.41455078 C-34.55277688 319.71041426 -30.47800554 307.96448772 -26.58740234 296.1315918 C-22.74818205 284.49380996 -18.72682803 272.92137516 -14.68652344 261.35205078 C-14.35710754 260.4076413 -14.02769165 259.46323181 -13.68829346 258.49020386 C-12.74241938 255.77962301 -11.79494549 253.06960824 -10.84667969 250.35986328 C-10.4253904 249.15386726 -10.4253904 249.15386726 -9.99559021 247.92350769 C-9.72738968 247.15887711 -9.45918915 246.39424652 -9.18286133 245.60644531 C-8.95321182 244.95080597 -8.72356232 244.29516663 -8.48695374 243.61965942 C-7.23307738 240.14309196 -5.92169546 236.6875095 -4.62402344 233.22705078 C-36.96402344 233.22705078 -69.30402344 233.22705078 -102.62402344 233.22705078 C-99.25353467 221.99208822 -99.25353467 221.99208822 -97.40917969 217.48095703 C-96.98096924 216.42368408 -96.55275879 215.36641113 -96.11157227 214.27709961 C-95.64130615 213.1262085 -95.17104004 211.97531738 -94.68652344 210.78955078 C-93.60501515 208.11903681 -92.52819963 205.4466427 -91.45214844 202.77392578 C-91.00993706 201.67646782 -91.00993706 201.67646782 -90.55879211 200.55683899 C-86.27919434 189.91297327 -82.11681777 179.22269032 -77.93652344 168.53955078 C-71.65204245 152.48669628 -65.34733674 136.44227062 -58.99902344 120.41455078 C-52.32100609 103.55202098 -45.6987949 86.66810857 -39.09692383 69.77563477 C-35.6886803 61.0555583 -32.27834449 52.33637958 -28.84667969 43.62548828 C-28.55479263 42.88447372 -28.26290558 42.14345917 -27.96217346 41.37998962 C-26.59191176 37.90304597 -25.21917028 34.42711035 -23.84204102 30.95288086 C-21.64821621 25.41268012 -19.4736492 19.8692862 -17.41308594 14.27783203 C-17.09235107 13.41641602 -16.77161621 12.555 -16.44116211 11.66748047 C-15.88195293 10.15576872 -15.33391994 8.63983961 -14.80102539 7.11865234 C-13.12633139 2.60610697 -13.12633139 2.60610697 -11.07147217 1.05545044 C-7.41923638 -0.18073925 -3.81098201 -0.03350685 0 0 Z " fill="#1781B1" transform="translate(510.6240234375,297.77294921875)"/>
<path d="M0 0 C2.42130331 2.42130331 2.52840504 3.80111377 3.125 7.125 C3.29257812 8.03507812 3.46015625 8.94515625 3.6328125 9.8828125 C3.75398437 10.58148438 3.87515625 11.28015625 4 12 C4.76852295 11.97381592 5.5370459 11.94763184 6.32885742 11.9206543 C41.64864392 10.88114043 71.11482282 19.29535163 97.78125 43.52734375 C119.48703921 64.28807753 132.22952928 93.67608963 133.21875 123.64453125 C133.87201322 154.58121102 124.35693139 181.49745325 103.59375 204.6875 C93.15054822 215.53757977 77.18480473 229.41092938 61.84912109 232.42236328 C59.57943841 232.89289054 59.57943841 232.89289054 58.32421875 236.17578125 C57.76665821 237.54988405 57.22183822 238.92920144 56.6875 240.3125 C51.48479957 252.89652292 44.51229069 263.45429555 36 274 C35.37222656 274.78375 34.74445313 275.5675 34.09765625 276.375 C32.78727727 277.96411485 31.40287227 279.49191231 30 281 C29.34 281 28.68 281 28 281 C28 281.66 28 282.32 28 283 C16.29636216 294.09382905 2.55559518 302.30377399 -12 309 C-13.71896484 309.81984375 -13.71896484 309.81984375 -15.47265625 310.65625 C-41.37957213 322.10552962 -71.6003806 323.04537489 -99 317 C-99.65709961 316.86078125 -100.31419922 316.7215625 -100.99121094 316.578125 C-113.36252506 313.88572817 -125.60130915 309.30632207 -136 302 C-134.2703384 297.79046213 -131.31793255 294.64856424 -128.375 291.25 C-127.859375 290.64800781 -127.34375 290.04601562 -126.8125 289.42578125 C-125.54530865 287.94739134 -124.27314225 286.47326829 -123 285 C-121.62328125 285.30744141 -121.62328125 285.30744141 -120.21875 285.62109375 C-118.37796875 286.02521484 -118.37796875 286.02521484 -116.5 286.4375 C-115.2934375 286.70433594 -114.086875 286.97117187 -112.84375 287.24609375 C-89.61417395 291.80230125 -65.12689754 289.05870358 -43 281 C-41.15728516 280.35417969 -41.15728516 280.35417969 -39.27734375 279.6953125 C-23.66064494 273.88215647 -10.20268679 265.29033637 2 254 C2.89332031 253.19949219 3.78664063 252.39898438 4.70703125 251.57421875 C11.53137012 245.16919409 16.20533816 237.94632533 21 230 C21.66 229.01 22.32 228.02 23 227 C25.87890625 226.48046875 25.87890625 226.48046875 29.5625 226.1875 C50.42783325 223.99597746 69.65066891 213.33545679 83.16015625 197.3671875 C89.51615785 189.18940201 93.74949939 180.82294141 97 171 C97.32097656 170.09121094 97.64195312 169.18242188 97.97265625 168.24609375 C103.83632489 149.07326096 100.37350462 126.57554927 91.296875 109.05078125 C80.31336578 89.07346048 62.6571623 77.77397246 41.4375 70.91015625 C23.73531483 66.2231004 5.99719439 69.14980286 -11 75 C-11.22550537 74.47680176 -11.45101074 73.95360352 -11.68334961 73.41455078 C-16.26768921 62.91526961 -20.49490334 53.89373664 -29 46 C-29.66 45.34 -30.32 44.68 -31 44 C-20.95795446 29.12646351 -10.82971785 14.31599689 0 0 Z " fill="#E1E2E3" transform="translate(640,365)"/>
<path d="M0 0 C47.25793836 -1.0301226 87.92086329 13.68669504 124.26416016 43.79150391 C125.48779297 45.06201172 125.48779297 45.06201172 125.48779297 47.06201172 C82.42279297 47.55701172 82.42279297 47.55701172 38.48779297 48.06201172 C36.01279297 54.00201172 36.01279297 54.00201172 33.48779297 60.06201172 C33.15779297 59.40201172 32.82779297 58.74201172 32.48779297 58.06201172 C30.16402702 57.66746469 27.8277231 57.34535341 25.48779297 57.06201172 C22.01066786 56.34071406 18.54956843 55.56184835 15.08544922 54.78076172 C-19.96899273 47.77748558 -55.95180313 57.92818606 -85.26220703 77.37451172 C-114.42961351 98.30212586 -132.61838371 127.8776725 -138.51220703 163.06201172 C-140.33751953 163.64982422 -140.33751953 163.64982422 -142.19970703 164.24951172 C-147.47359974 165.99627873 -152.62614377 168.02648488 -157.78955078 170.07373047 C-160.51220703 171.06201172 -160.51220703 171.06201172 -162.51220703 171.06201172 C-163.02755495 156.80405276 -162.01849 143.89509365 -158.51220703 130.06201172 C-158.22265137 128.86656738 -158.22265137 128.86656738 -157.92724609 127.64697266 C-152.80536541 106.93237145 -143.25172044 87.16377759 -130.51220703 70.06201172 C-129.84833984 69.16998047 -129.18447266 68.27794922 -128.50048828 67.35888672 C-101.09568764 32.00502626 -61.80161663 8.17770817 -17.51220703 1.06201172 C-11.67303737 0.33589736 -5.87284818 0.14496632 0 0 Z " fill="#E1E2E3" transform="translate(461.51220703125,249.93798828125)"/>
<path d="M0 0 C0.029729 0.88353149 0.029729 0.88353149 0.06005859 1.78491211 C0.15643277 4.50282351 0.26564712 7.22008103 0.375 9.9375 C0.4059375 10.86369141 0.436875 11.78988281 0.46875 12.74414062 C0.6908912 18.0199941 1.24862055 22.91515288 2.58447266 28.02954102 C3 30 3 30 3 34 C2.05640625 34.44988281 1.1128125 34.89976562 0.140625 35.36328125 C-17.21841712 43.93601239 -29.49756739 56.32072729 -36 75 C-41.11055358 94.63633642 -38.93492741 113.77199429 -29.1875 131.4375 C-18.2613551 148.16815938 -3.85730504 156.7093141 15 162 C15 162.33 15 162.66 15 163 C-5.06374335 162.62782264 -22.23278409 154.29952626 -37 141 C-38.17175781 139.96939453 -38.17175781 139.96939453 -39.3671875 138.91796875 C-54.00869308 125.26438483 -62.5411166 105.599139 -63.37109375 85.6796875 C-63.60811026 72.52479118 -63.35311271 61.14275694 -58 49 C-57.74299316 48.39414062 -57.48598633 47.78828125 -57.22119141 47.1640625 C-53.41853993 38.31221817 -48.48452797 31.08277107 -42 24 C-41.22785156 23.13503906 -40.45570313 22.27007812 -39.66015625 21.37890625 C-30.29986056 11.41178426 -14.352027 -0.38789262 0 0 Z " fill="#E0E1E3" transform="translate(320,429)"/>
<path d="M0 0 C0.495 0.99 0.495 0.99 1 2 C25.75 2 50.5 2 76 2 C73.61934616 6.76130767 70.57773066 10.10637115 67 14 C66.48566406 14.58007812 65.97132813 15.16015625 65.44140625 15.7578125 C47.91984383 34.54652034 18.54599635 45.92240329 -6.63574219 47.12597656 C-9.42458874 47.20452162 -12.21012758 47.23458634 -15 47.25 C-15.93328125 47.270625 -16.8665625 47.29125 -17.828125 47.3125 C-24.09489738 47.3475099 -29.19766657 46.37465868 -35 44 C-32.65018437 39.73698988 -29.70512889 36.19354603 -26.5 32.5625 C-21.82013407 27.18604278 -17.33351402 21.69930905 -12.9597168 16.07202148 C-8.73326745 10.63646902 -4.38669911 5.30736435 0 0 Z " fill="#E2E3E4" transform="translate(566,590)"/>
<path d="M0 0 C-3.24007034 8.70498897 -6.48590385 17.40080002 -10 26 C-11.03833984 25.51080078 -11.03833984 25.51080078 -12.09765625 25.01171875 C-33.70158938 15.36253123 -59.83364139 14.61007852 -82.08398438 22.76367188 C-96.4532016 28.28621895 -108.08578306 36.18535136 -119 47 C-119.81726563 47.804375 -120.63453125 48.60875 -121.4765625 49.4375 C-131.29707194 59.69672636 -137.53838808 72.61516423 -142 86 C-143.98 86 -145.96 86 -148 86 C-147.18660288 63.22488076 -130.46201982 40.43895314 -114.5546875 25.2109375 C-96.61025965 9.6810504 -77.26950311 0.63510964 -54 -4 C-53.0821875 -4.18691406 -52.164375 -4.37382812 -51.21875 -4.56640625 C-34.06815836 -6.8767408 -16.61878362 -4.20373953 0 0 Z " fill="#E0E1E2" transform="translate(489,325)"/>
<path d="M0 0 C8.25 0 16.5 0 25 0 C23.15261132 6.7737585 21.30148292 13.38935758 19 20 C18.38125 19.360625 17.7625 18.72125 17.125 18.0625 C13.72849258 14.63679625 10.05570343 11.5256367 6.40234375 8.37890625 C4 6 4 6 0 0 Z " fill="#DEE0E1" transform="translate(460,592)"/>
<path d="M0 0 C0.70511719 0.72316406 1.41023438 1.44632813 2.13671875 2.19140625 C9.08934415 9.1391406 17.04630394 15.24526696 25 21 C24.54803755 22.60597325 24.08817673 24.20972508 23.625 25.8125 C23.24214844 27.15248047 23.24214844 27.15248047 22.8515625 28.51953125 C22 31 22 31 20 34 C19.38705078 32.92878906 19.38705078 32.92878906 18.76171875 31.8359375 C16.9504409 28.92022193 14.94181171 26.31584701 12.8125 23.625 C9.22889822 18.90169536 6.21667399 14.11017354 3.4375 8.875 C3.09114502 8.22354004 2.74479004 7.57208008 2.38793945 6.90087891 C0 2.2813859 0 2.2813859 0 0 Z " fill="#E0E1E3" transform="translate(448,606)"/>
<path d="M0 0 C1.98 0 3.96 0 6 0 C6.33 9.9 6.66 19.8 7 30 C5.35 30 3.7 30 2 30 C-0.28487759 23.65811536 -0.23299776 17.75420732 -0.125 11.0625 C-0.11597656 9.99708984 -0.10695313 8.93167969 -0.09765625 7.83398438 C-0.07423414 5.22241966 -0.04143452 2.61133063 0 0 Z " fill="#E0E1E2" transform="translate(338,427)"/>
<path d="M0 0 C30.69 0 61.38 0 93 0 C92.67 0.99 92.34 1.98 92 3 C91.505 2.01 91.505 2.01 91 1 C89.89166306 1.01252808 88.78332611 1.02505615 87.6414032 1.03796387 C77.20859058 1.15586909 66.77577598 1.2735974 56.3429594 1.39115143 C50.97904549 1.45159621 45.6151323 1.51210385 40.2512207 1.57275391 C35.07709223 1.63125578 29.90296194 1.68959415 24.72883034 1.74781799 C22.75242865 1.77008715 20.77602764 1.79241574 18.7996273 1.81480408 C16.03658595 1.84609331 13.27354232 1.87717334 10.51049805 1.90820312 C9.68906815 1.91755386 8.86763824 1.9269046 8.02131653 1.9365387 C5.01402755 1.9701434 2.00750443 2 -1 2 C-0.67 1.34 -0.34 0.68 0 0 Z " fill="#2C9FBE" transform="translate(500,297)"/>
<path d="M0 0 C0.33 0.66 0.66 1.32 1 2 C0.14453125 3.91796875 0.14453125 3.91796875 -1.1875 6.1875 C-1.65542969 6.98929688 -2.12335938 7.79109375 -2.60546875 8.6171875 C-3.06566406 9.40351562 -3.52585937 10.18984375 -4 11 C-4.52013672 11.99386719 -4.52013672 11.99386719 -5.05078125 13.0078125 C-7.13589704 16.97210672 -9.32454705 19.44760212 -13 22 C-11.12275039 15.62267685 -9.14328358 9.29304541 -7 3 C-5 6 -5 6 -5 9 C-4.72285156 8.43410156 -4.44570313 7.86820313 -4.16015625 7.28515625 C-3.79792969 6.55167969 -3.43570312 5.81820312 -3.0625 5.0625 C-2.70285156 4.33160156 -2.34320313 3.60070312 -1.97265625 2.84765625 C-1 1 -1 1 0 0 Z " fill="#226099" transform="translate(444,725)"/>
<path d="M0 0 C0.66 0.33 1.32 0.66 2 1 C-3.445 7.435 -3.445 7.435 -9 14 C-10 12 -10 12 -9 8.6875 C-7.04577486 4.3019619 -4.00426532 2.49322181 0 0 Z " fill="#3F7EB2" transform="translate(437,743)"/>
<path d="M0 0 C0.66 0.33 1.32 0.66 2 1 C1.57835981 2.98260599 1.13721222 4.96107245 0.6875 6.9375 C0.44386719 8.03964844 0.20023437 9.14179687 -0.05078125 10.27734375 C-0.36402344 11.17582031 -0.67726563 12.07429687 -1 13 C-1.99 13.33 -2.98 13.66 -4 14 C-3.46148032 8.72250715 -2.22656164 4.74354436 0 0 Z " fill="#175C95" transform="translate(465,650)"/>
<path d="M0 0 C0.66 0.33 1.32 0.66 2 1 C0.35 2.98 -1.3 4.96 -3 7 C-3.66 6.67 -4.32 6.34 -5 6 C-3.63016497 2.83884224 -3.0109362 2.0072908 0 0 Z " fill="#256DAC" transform="translate(437,743)"/>
</svg>
